<svg id="Layer_1" data-name="Layer 1" xmlns="http://www.w3.org/2000/svg" viewBox="0 0 489.73999 489.73999"><defs><style>.cls-1{fill:#4d4d4d;}.cls-2{fill:#333;}.cls-3{fill:#ed1c24;stroke:#000;stroke-miterlimit:10;stroke-width:0.5px;}.cls-4{fill:#d42900;}.cls-5{fill:#fff;}.cls-6{fill:#606060;}</style></defs><title>youtube-music-logo</title><path class="cls-1" d="M133.31,250a116.17771,116.17771,0,0,0,24.95,72.12L43.88,382.24a245.01957,245.01957,0,0,1,1.69-267.08l113.77,61.38A116.14194,116.14194,0,0,0,133.31,250Z" transform="translate(-5.13 -5.13)"/><path class="cls-2" d="M494.87,250c0,135.24-109.63,244.87-244.87,244.87A244.65524,244.65524,0,0,1,43.88,382.24l114.38-60.12a116.69664,116.69664,0,1,0,1.08-145.58L45.57,115.16A244.62124,244.62124,0,0,1,250,5.13C385.24,5.13,494.87,114.76,494.87,250Z" transform="translate(-5.13 -5.13)"/><path class="cls-3" d="M366.69,250a116.69354,116.69354,0,0,1-208.43,72.12l63.86-33.56L295.48,250l-73.36-39.58-62.78-33.88A116.68645,116.68645,0,0,1,366.69,250Z" transform="translate(-5.13 -5.13)"/><path class="cls-4" d="M222.12,210.42v78.14l-63.86,33.56a116.6903,116.6903,0,0,1,1.08-145.58Z" transform="translate(-5.13 -5.13)"/><polygon class="cls-5" points="290.35 244.87 216.99 283.43 216.99 205.29 290.35 244.87"/><line class="cls-6" x1="216.99" y1="283.63" x2="216.99" y2="283.43"/></svg>